<svg width="406.3" height="99.001" viewBox="0 0 406.3 99.001" xmlns="http://www.w3.org/2000/svg"><g id="svgGroup" stroke-linecap="round" fill-rule="evenodd" font-size="9pt" stroke="#000" stroke-width="0.25mm" fill="black" style="stroke:#000;stroke-width:0.25mm;fill:black"><path d="M 99.744 71.817 A 462.701 462.701 0 0 0 104.575 66.399 L 113.6 50.2 Q 127.472 25.698 136.91 11.882 A 166.106 166.106 0 0 1 142.6 4 A 40.475 40.475 0 0 1 143.662 2.641 Q 145.22 0.739 146.162 0.207 A 1.345 1.345 0 0 1 146.8 0 A 0.63 0.63 0 0 1 147.076 0.057 Q 147.4 0.213 147.4 0.8 A 5.223 5.223 0 0 1 147.247 1.929 Q 146.823 3.784 145.226 7.252 A 92.424 92.424 0 0 1 144.2 9.4 A 35788.164 35788.164 0 0 1 137.158 22.087 Q 129.398 36.062 124.87 44.179 A 3847.796 3847.796 0 0 1 122.4 48.6 Q 118.946 54.762 116.102 59.66 A 583.799 583.799 0 0 1 115.7 60.35 Q 112.937 65.093 111.659 67.249 A 250.568 250.568 0 0 1 111.45 67.6 A 526.542 526.542 0 0 0 110.562 69.098 Q 109.863 70.281 109.3 71.25 A 44.394 44.394 0 0 0 108.693 72.328 Q 108.216 73.204 107.9 73.9 A 1.89 1.89 0 0 0 107.8 74.491 A 1.801 1.801 0 0 0 107.8 74.5 Q 107.8 74.894 107.924 74.977 A 0.133 0.133 0 0 0 108 75 A 0.267 0.267 0 0 0 108.107 74.971 Q 108.331 74.869 108.8 74.4 Q 130.706 50.049 137.884 49.512 A 4.239 4.239 0 0 1 138.2 49.5 A 2.015 2.015 0 0 1 138.754 49.57 Q 139.375 49.748 139.54 50.382 A 2.063 2.063 0 0 1 139.6 50.9 Q 139.6 51.3 139.2 52.65 A 11.375 11.375 0 0 1 138.953 53.372 Q 138.384 54.897 136.9 58.1 A 69.303 69.303 0 0 1 135.008 61.86 Q 133.985 63.756 132.748 65.812 A 120.613 120.613 0 0 1 131.9 67.2 Q 130.445 69.344 128.404 72.895 A 204.962 204.962 0 0 0 127.1 75.2 Q 124.2 80.4 124.2 82 A 1.296 1.296 0 0 0 124.245 82.356 Q 124.359 82.756 124.767 82.862 A 1.326 1.326 0 0 0 125.1 82.9 Q 125.345 82.9 125.758 82.733 A 5.042 5.042 0 0 0 125.95 82.65 A 3.665 3.665 0 0 0 126.374 82.419 Q 126.588 82.286 126.821 82.108 A 8.626 8.626 0 0 0 127.2 81.8 A 67.501 67.501 0 0 0 127.86 81.227 Q 128.171 80.953 128.446 80.704 A 39.524 39.524 0 0 0 128.45 80.7 Q 129 80.2 130.05 79.25 Q 131.061 78.336 131.562 77.931 A 10.203 10.203 0 0 1 131.6 77.9 Q 134.816 74.685 139.614 69.3 A 469.371 469.371 0 0 0 140.46 68.347 A 59.618 59.618 0 0 1 150.9 56.9 A 39.041 39.041 0 0 1 156.284 53.026 Q 161.93 49.7 167.3 49.7 A 7.578 7.578 0 0 1 168.307 49.765 A 6.429 6.429 0 0 1 168.8 49.85 Q 169.5 50 169.85 50.1 Q 170.2 50.2 170.5 50.4 L 170.8 50.5 A 0.36 0.36 0 0 0 170.935 50.471 Q 171.05 50.424 171.191 50.302 A 2.098 2.098 0 0 0 171.3 50.2 Q 189.725 16.936 199.619 4.204 A 87.851 87.851 0 0 1 199.7 4.1 Q 202.7 0.1 204 0.1 Q 204.477 0.1 204.499 0.829 A 2.391 2.391 0 0 1 204.5 0.9 A 5.223 5.223 0 0 1 204.347 2.029 Q 203.923 3.884 202.326 7.352 A 92.424 92.424 0 0 1 201.3 9.5 Q 185.9 37.7 179.7 48.6 Q 169.317 67.121 166.546 71.817 A 92.322 92.322 0 0 1 166.2 72.4 Q 161.48 80.492 161.307 82.459 A 1.612 1.612 0 0 0 161.3 82.6 Q 161.3 83.3 161.9 83.3 A 1.757 1.757 0 0 0 162.331 83.242 Q 162.529 83.192 162.745 83.099 A 3.968 3.968 0 0 0 163.05 82.95 A 5.746 5.746 0 0 0 163.559 82.638 Q 163.828 82.455 164.118 82.221 A 12.171 12.171 0 0 0 164.5 81.9 Q 165.3 81.2 165.95 80.6 A 38.928 38.928 0 0 0 166.473 80.108 Q 166.705 79.885 166.962 79.633 A 79.086 79.086 0 0 0 167.5 79.1 L 168.7 77.9 Q 171.916 74.685 176.714 69.3 A 469.371 469.371 0 0 0 179.155 66.538 A 494.967 494.967 0 0 1 180.542 64.198 Q 183.906 58.563 186.1 55.3 Q 187.8 52.8 190.45 51.05 Q 192.421 49.749 194.198 49.415 A 6.507 6.507 0 0 1 195.4 49.3 A 1.33 1.33 0 0 1 195.702 49.331 Q 196.114 49.428 196.185 49.822 A 1.002 1.002 0 0 1 196.2 50 Q 196.2 50.5 195.5 51.9 A 165.093 165.093 0 0 1 194.927 52.94 Q 193.419 55.656 189.6 62.4 Q 185.575 69.509 184.337 71.776 A 57.245 57.245 0 0 0 184 72.4 Q 179.9 79.6 179.9 82 Q 179.9 82.867 180.456 82.899 A 0.758 0.758 0 0 0 180.5 82.9 A 1.291 1.291 0 0 0 181.03 82.724 Q 182.252 82.096 185.45 79.224 A 130.52 130.52 0 0 0 186.9 77.9 Q 190.116 74.685 194.914 69.3 A 469.371 469.371 0 0 0 198 65.8 A 1.997 1.997 0 0 1 198.135 65.676 Q 198.274 65.561 198.388 65.521 A 0.341 0.341 0 0 1 198.5 65.5 A 0.16 0.16 0 0 1 198.649 65.599 Q 198.689 65.676 198.697 65.815 A 1.347 1.347 0 0 1 198.7 65.9 A 5.089 5.089 0 0 1 198.114 68.236 A 7.379 7.379 0 0 1 197.2 69.6 Q 189.8 77.8 184.1 83.3 A 177.579 177.579 0 0 1 180.008 87.038 Q 172 94.107 169.247 94.295 A 2.152 2.152 0 0 1 169.1 94.3 A 1.756 1.756 0 0 1 168.307 94.133 Q 167.572 93.766 167.432 92.592 A 5.041 5.041 0 0 1 167.4 92 A 8.55 8.55 0 0 1 167.542 90.54 Q 167.814 88.99 168.603 86.836 A 44.439 44.439 0 0 1 169.2 85.3 Q 170.88 81.192 172.561 78.043 A 55.036 55.036 0 0 1 172.8 77.6 L 174.6 74.4 A 745.83 745.83 0 0 1 174.604 74.394 A 378.282 378.282 0 0 1 173.689 75.37 Q 169.463 79.863 165.9 83.3 A 161.467 161.467 0 0 1 161.76 87.038 Q 153.516 94.205 150.48 94.299 A 2.578 2.578 0 0 1 150.4 94.3 A 1.869 1.869 0 0 1 149.829 94.221 Q 149.221 94.025 149.059 93.353 A 2.365 2.365 0 0 1 149 92.8 A 5.788 5.788 0 0 1 149.119 91.713 Q 149.459 89.959 150.772 87.078 A 49.521 49.521 0 0 1 150.9 86.8 Q 152.8 82.7 154.8 79.5 L 156.7 76.3 A 2.635 2.635 0 0 0 156.893 76.027 Q 157.1 75.688 157.1 75.4 Q 157.1 75.2 156.9 75.2 A 0.667 0.667 0 0 0 156.651 75.256 Q 156.318 75.391 155.843 75.858 A 6.706 6.706 0 0 0 155.8 75.9 A 93.848 93.848 0 0 1 151.801 80.246 A 117.376 117.376 0 0 1 148.7 83.3 A 260.659 260.659 0 0 1 146.794 85.094 Q 144.075 87.625 142.2 89.2 L 139.8 91.2 Q 135.993 94.151 133.998 94.293 A 2.778 2.778 0 0 1 133.8 94.3 L 133.4 94.2 Q 131.751 94.103 131.702 91.372 A 9.47 9.47 0 0 1 131.7 91.2 A 26.307 26.307 0 0 1 132.583 84.67 Q 133.349 81.683 134.78 78.429 A 58.458 58.458 0 0 1 135.841 76.164 A 262.47 262.47 0 0 1 131.565 80.574 A 188.184 188.184 0 0 1 128.8 83.3 A 162.248 162.248 0 0 1 124.588 87.072 Q 116.088 94.4 113 94.4 A 1.669 1.669 0 0 1 112.335 94.278 Q 111.615 93.967 111.516 92.87 A 4.12 4.12 0 0 1 111.5 92.5 Q 111.5 89.768 113.862 84.875 A 63.813 63.813 0 0 1 115.6 81.55 A 285.647 285.647 0 0 1 121.214 71.917 A 241.568 241.568 0 0 1 123.75 67.85 A 161.833 161.833 0 0 0 124.699 66.345 Q 127.8 61.363 127.8 60.4 A 0.864 0.864 0 0 0 127.77 60.163 Q 127.666 59.8 127.2 59.8 Q 124.83 59.8 118.269 67.014 A 110.181 110.181 0 0 0 118.1 67.2 Q 112.709 73.155 108.677 78.138 A 167.787 167.787 0 0 0 106.8 80.5 Q 103.373 84.8 100.556 87.927 A 84.328 84.328 0 0 1 97.95 90.7 Q 94.992 93.698 93.62 94.642 A 3.594 3.594 0 0 1 93 95 L 91.7 95.6 A 1.156 1.156 0 0 1 91.328 95.545 Q 90.813 95.37 90.8 94.636 A 2.163 2.163 0 0 1 90.8 94.6 Q 90.8 93.118 92.346 89.488 A 57.84 57.84 0 0 1 92.6 88.9 Q 94.4 84.8 96.2 81.5 L 98 78.2 L 100.444 73.813 A 378.282 378.282 0 0 1 98.989 75.37 Q 94.763 79.863 91.2 83.3 A 58.236 58.236 0 0 1 85.969 87.914 A 74.018 74.018 0 0 1 81.2 91.35 A 36.631 36.631 0 0 1 78.178 93.168 Q 75.051 94.833 72.634 95.134 A 8.364 8.364 0 0 1 71.6 95.2 A 4.605 4.605 0 0 1 69.402 94.708 Q 67.5 93.692 67.104 90.582 A 14.148 14.148 0 0 1 67 88.8 Q 67 78.2 74.85 66.6 A 51.796 51.796 0 0 1 81.357 58.682 Q 86.723 53.399 93 50.9 A 26.758 26.758 0 0 1 96.3 49.752 Q 98.021 49.283 99.593 49.152 A 14.46 14.46 0 0 1 100.8 49.1 A 7.201 7.201 0 0 1 102.223 49.228 Q 104.431 49.675 104.671 51.687 A 4.338 4.338 0 0 1 104.7 52.2 Q 104.7 57.153 98.721 63.345 A 49.944 49.944 0 0 1 96.5 65.5 Q 88.3 73 78.1 76.9 Q 77.714 76.997 77.422 77.557 A 2.781 2.781 0 0 0 77.4 77.6 A 28.831 28.831 0 0 0 76.457 80.666 Q 75.9 82.95 75.9 84.9 A 7.055 7.055 0 0 0 76.009 86.203 Q 76.443 88.5 78.6 88.5 A 7.943 7.943 0 0 0 81.391 87.927 Q 83.901 86.978 87.064 84.455 A 50.088 50.088 0 0 0 89.9 82 Q 93.663 78.521 99.744 71.817 Z M 309.2 79.4 L 311 76.3 A 10.404 10.404 0 0 0 311.136 76.055 Q 311.4 75.563 311.4 75.4 Q 311.4 75.2 311.2 75.2 A 0.551 0.551 0 0 0 310.983 75.257 Q 310.655 75.403 310.086 75.928 A 13.474 13.474 0 0 0 309.7 76.3 Q 306.7 79.6 302.85 83.35 Q 299.902 86.221 297.805 88.125 A 89.2 89.2 0 0 1 296.6 89.2 L 294.3 91.2 A 29.691 29.691 0 0 1 292.571 92.442 Q 290.88 93.558 289.615 93.966 A 4.334 4.334 0 0 1 288.3 94.2 Q 286.18 94.2 286.103 91.042 A 9.951 9.951 0 0 1 286.1 90.8 A 9.157 9.157 0 0 1 286.171 89.736 Q 286.36 88.143 287.05 85.6 Q 287.872 82.571 288.357 81.265 A 10.068 10.068 0 0 1 288.5 80.9 Q 290.8 75.3 294.25 70 Q 297.7 64.7 302.4 59.85 Q 307.1 55 313.35 52 Q 319.6 49 326.3 49 Q 331.9 49 331.9 50.7 A 0.722 0.722 0 0 1 331.503 51.338 Q 330.961 51.666 329.676 51.697 A 11.465 11.465 0 0 1 329.4 51.7 A 21.996 21.996 0 0 0 317.557 55.244 A 32.42 32.42 0 0 0 312.15 59.55 Q 304.1 67.4 299.1 77.6 A 18.616 18.616 0 0 0 298.377 79.223 Q 297.726 80.913 297.701 82.199 A 5.255 5.255 0 0 0 297.7 82.3 Q 297.7 83.4 298.4 83.4 Q 299.6 83.4 301.5 81.7 Q 302.7 80.6 304.75 78.8 Q 306.73 77.062 311.088 72.246 A 288.702 288.702 0 0 0 311.4 71.9 Q 315.335 67.537 317.88 63.687 A 45.449 45.449 0 0 0 318.7 62.4 A 7.743 7.743 0 0 1 319.028 61.815 Q 319.392 61.222 319.95 60.5 A 7.619 7.619 0 0 1 320.511 59.863 Q 321.141 59.214 322.157 58.379 A 42.52 42.52 0 0 1 323.2 57.55 Q 325.366 55.881 327.531 55.718 A 6.243 6.243 0 0 1 328 55.7 A 3.608 3.608 0 0 1 328.441 55.725 Q 329.3 55.831 329.3 56.4 A 0.454 0.454 0 0 1 329.282 56.515 Q 329.233 56.7 329.044 57.026 A 6.085 6.085 0 0 1 329 57.1 A 15.276 15.276 0 0 1 328.799 57.485 Q 328.253 58.5 326.75 61.1 Q 324.9 64.3 323.3 67.15 Q 321.7 70 319.9 73.35 Q 318.663 75.653 317.779 77.507 A 54.83 54.83 0 0 0 317.05 79.1 A 33.416 33.416 0 0 0 316.641 80.074 Q 316.108 81.405 316.018 82.062 A 1.777 1.777 0 0 0 316 82.3 A 1.052 1.052 0 0 0 316.021 82.523 Q 316.091 82.844 316.39 82.892 A 0.702 0.702 0 0 0 316.5 82.9 Q 317.912 82.9 323.137 77.758 A 117.411 117.411 0 0 0 323.8 77.1 Q 326.825 73.938 330.559 69.783 A 529.518 529.518 0 0 0 333.465 66.52 A 494.967 494.967 0 0 1 334.842 64.198 Q 338.206 58.563 340.4 55.3 Q 342.1 52.8 344.75 51.05 Q 346.721 49.749 348.498 49.415 A 6.507 6.507 0 0 1 349.7 49.3 A 1.33 1.33 0 0 1 350.002 49.331 Q 350.414 49.428 350.485 49.822 A 1.002 1.002 0 0 1 350.5 50 Q 350.5 50.5 349.8 51.9 A 165.093 165.093 0 0 1 349.227 52.94 Q 347.719 55.656 343.9 62.4 Q 339.875 69.509 338.637 71.776 A 57.245 57.245 0 0 0 338.3 72.4 Q 334.2 79.6 334.2 82 Q 334.2 82.867 334.756 82.899 A 0.758 0.758 0 0 0 334.8 82.9 A 1.291 1.291 0 0 0 335.33 82.724 Q 336.552 82.096 339.75 79.224 A 130.52 130.52 0 0 0 341.2 77.9 Q 344.416 74.685 349.214 69.3 A 469.371 469.371 0 0 0 352.219 65.893 L 355.6 60 Q 360.069 51.575 364.86 49.322 A 8.245 8.245 0 0 1 368.4 48.5 Q 369.3 48.5 369.3 49.2 A 1.608 1.608 0 0 1 369.149 49.732 Q 368.489 51.322 364.95 56.65 A 239.682 239.682 0 0 0 363.447 58.939 Q 360.469 63.538 359.9 65 A 19.684 19.684 0 0 0 359.832 65.208 Q 359.718 65.562 359.702 65.672 A 0.209 0.209 0 0 0 359.7 65.7 Q 359.7 65.9 359.9 65.9 Q 360.1 65.9 360.6 65.4 A 121.244 121.244 0 0 1 375.437 51.146 A 111.804 111.804 0 0 1 376.5 50.3 Q 376.963 49.837 378.454 48.989 A 36.604 36.604 0 0 1 378.7 48.85 A 9.714 9.714 0 0 1 379.773 48.329 Q 380.332 48.101 380.841 47.994 A 4.183 4.183 0 0 1 381.7 47.9 A 1.567 1.567 0 0 1 383.196 48.859 Q 383.6 49.679 383.6 51.2 Q 383.6 53.781 382.367 57.08 A 33.007 33.007 0 0 1 381.2 59.8 Q 378.8 64.8 374.7 68.6 L 374.3 69 Q 373.9 69.3 373.45 69.65 Q 373 70 372.3 70.5 A 10.874 10.874 0 0 1 371.272 71.154 A 9.454 9.454 0 0 1 370.9 71.35 A 15.1 15.1 0 0 1 369.794 71.847 A 17.235 17.235 0 0 1 369.4 72 A 5.062 5.062 0 0 1 368.672 72.216 A 3.727 3.727 0 0 1 367.9 72.3 A 1.568 1.568 0 0 1 367.611 72.276 Q 367.1 72.179 367.1 71.7 Q 367.1 71.446 367.315 71.049 A 3.862 3.862 0 0 1 367.4 70.9 Q 372.328 63.215 373.14 59.577 A 5.94 5.94 0 0 0 373.3 58.3 Q 373.3 57.4 372.6 57.4 Q 369.6 57.4 358.5 71 Q 355.2 75.2 352.35 79.7 A 131.175 131.175 0 0 0 351.034 81.819 Q 349.686 84.041 348.884 85.607 A 25.572 25.572 0 0 0 348.4 86.6 L 347.2 88.9 A 12.302 12.302 0 0 1 345.347 91.593 A 16.51 16.51 0 0 1 343.5 93.35 Q 341 95.4 338.3 95.4 A 4.204 4.204 0 0 1 337.833 95.377 Q 336.9 95.272 336.9 94.7 Q 336.9 94.211 337.464 92.86 A 28.571 28.571 0 0 1 337.75 92.2 Q 338.587 90.33 339.762 88.073 A 106.264 106.264 0 0 1 339.8 88 Q 341 85.7 342.2 83.5 A 695.493 695.493 0 0 0 342.775 82.444 Q 343.6 80.925 344.2 79.8 L 345.1 78.3 L 347.723 73.728 A 378.282 378.282 0 0 1 346.189 75.37 Q 341.963 79.863 338.4 83.3 A 177.579 177.579 0 0 1 334.308 87.038 Q 326.3 94.107 323.547 94.295 A 2.152 2.152 0 0 1 323.4 94.3 A 1.756 1.756 0 0 1 322.607 94.133 Q 321.872 93.766 321.732 92.592 A 5.041 5.041 0 0 1 321.7 92 A 8.55 8.55 0 0 1 321.842 90.54 Q 322.114 88.99 322.903 86.836 A 44.439 44.439 0 0 1 323.5 85.3 Q 325.18 81.192 326.861 78.043 A 55.036 55.036 0 0 1 327.1 77.6 L 328.873 74.449 A 392.969 392.969 0 0 1 327.468 75.954 Q 321.423 82.387 316.774 86.633 A 117.624 117.624 0 0 1 316.7 86.7 A 95.759 95.759 0 0 1 313.77 89.283 Q 307.819 94.3 305.3 94.3 A 1.743 1.743 0 0 1 304.712 94.209 Q 303.943 93.934 303.902 92.826 A 3.444 3.444 0 0 1 303.9 92.7 A 6.932 6.932 0 0 1 304.031 91.449 Q 304.267 90.178 304.93 88.395 A 40.916 40.916 0 0 1 305.65 86.6 A 78.009 78.009 0 0 1 307.357 82.863 Q 308.272 80.999 309.2 79.4 Z M 71.6 57.1 L 67.8 64.9 A 220.581 220.581 0 0 0 63.538 74.267 Q 57.778 87.826 57.513 94.93 A 17.984 17.984 0 0 0 57.5 95.6 Q 57.5 95.8 57.55 96.4 Q 57.6 97 57.6 97.4 Q 57.6 99 56.7 99 Q 55.305 99 53.709 97.015 A 14.743 14.743 0 0 1 53 96.05 A 10.699 10.699 0 0 1 51.564 92.856 Q 51 90.803 51 88.2 A 24.126 24.126 0 0 1 51.296 84.585 Q 51.798 81.288 53.15 77.2 Q 54.901 71.906 58.012 65.385 A 161.662 161.662 0 0 1 59.5 62.35 Q 63.257 54.881 65.934 50.012 A 184.088 184.088 0 0 1 66.55 48.9 Q 69.099 44.338 73.129 37.295 A 2647.78 2647.78 0 0 1 74.1 35.6 A 5.308 5.308 0 0 0 74.231 35.319 Q 74.348 35.047 74.384 34.855 A 0.846 0.846 0 0 0 74.4 34.7 A 1.594 1.594 0 0 0 74.308 34.505 Q 74.189 34.296 74.042 34.23 A 0.343 0.343 0 0 0 73.9 34.2 A 1.577 1.577 0 0 0 73.23 34.356 Q 72.965 34.479 72.7 34.7 A 58.532 58.532 0 0 0 69.089 37.93 Q 64.1 42.735 57.2 51 Q 49.475 60.254 43.693 67.954 A 272.601 272.601 0 0 0 41 71.6 L 34.3 80.7 A 15.468 15.468 0 0 1 33.675 81.576 Q 32.709 82.826 32 83.051 A 0.989 0.989 0 0 1 31.7 83.1 A 0.739 0.739 0 0 1 31.437 83.055 A 0.664 0.664 0 0 1 31.2 82.9 Q 31.015 82.715 30.916 82.402 A 1.86 1.86 0 0 1 30.9 82.35 Q 30.8 82 30.75 81.7 A 4.666 4.666 0 0 1 30.722 81.506 Q 30.711 81.419 30.705 81.342 A 2.029 2.029 0 0 1 30.7 81.2 L 30.7 81 Q 31.236 76.253 32.153 68.634 A 3969.901 3969.901 0 0 1 32.75 63.7 A 8616.077 8616.077 0 0 0 33.699 55.867 Q 34.068 52.809 34.394 50.092 A 4086.388 4086.388 0 0 0 35 45 A 4122.146 4122.146 0 0 0 35.211 43.216 Q 35.9 37.375 35.9 37.2 A 3.82 3.82 0 0 0 35.888 36.886 Q 35.831 36.2 35.5 36.2 A 0.381 0.381 0 0 0 35.376 36.224 Q 35.202 36.285 34.95 36.5 Q 34.6 36.8 34.4 37.1 L 34.2 37.4 Q 30.992 42.175 27.45 49.038 A 205.563 205.563 0 0 0 25 53.95 A 316.898 316.898 0 0 0 21.592 61.232 Q 19.956 64.853 18.611 68.115 A 169.13 169.13 0 0 0 17.1 71.9 A 144.669 144.669 0 0 1 14.452 78.215 A 115.727 115.727 0 0 1 12.6 82.15 Q 10.405 86.588 8.711 89.113 A 27.233 27.233 0 0 1 8.55 89.35 A 79.781 79.781 0 0 1 7.28 91.15 Q 6.256 92.556 5.35 93.65 Q 3.9 95.4 3.1 96 L 2.3 96.6 A 8.312 8.312 0 0 1 1.812 96.973 Q 1.334 97.308 0.975 97.43 A 1.175 1.175 0 0 1 0.6 97.5 A 0.497 0.497 0 0 1 0.124 97.203 Q 0.013 96.982 0.001 96.596 A 3.095 3.095 0 0 1 0 96.5 L 0.1 95.6 A 21.645 21.645 0 0 1 0.86 92.822 Q 2.469 88.015 6.927 79.156 A 314.555 314.555 0 0 1 8.85 75.4 Q 16.6 60.5 23.9 48.2 L 31.2 36 L 36.7 26.5 A 114.785 114.785 0 0 1 38.053 22.824 Q 40.815 15.732 42.559 14.908 A 1.031 1.031 0 0 1 43 14.8 A 0.939 0.939 0 0 1 43.799 15.311 Q 44.5 16.414 44.5 19.9 A 4913.307 4913.307 0 0 0 43.446 32.729 Q 41.4 58.094 41.4 62.4 Q 41.4 63.9 42 63.9 Q 42.6 63.9 43.4 62.8 Q 44.395 61.499 45.977 59.494 A 621.782 621.782 0 0 1 47 58.2 A 107.929 107.929 0 0 1 48.309 56.588 Q 50.234 54.256 53.602 50.344 A 1026.055 1026.055 0 0 1 55.8 47.8 Q 62.3 40.3 68.05 34.3 Q 73.8 28.3 80.6 22.8 A 68.126 68.126 0 0 1 83.85 20.319 Q 87.41 17.778 90.179 16.655 A 14.429 14.429 0 0 1 91.8 16.1 A 27.677 27.677 0 0 1 92.204 16.022 Q 92.74 15.923 92.995 15.905 A 1.451 1.451 0 0 1 93.1 15.9 A 2.352 2.352 0 0 1 93.534 15.937 Q 94.256 16.073 94.298 16.72 A 1.262 1.262 0 0 1 94.3 16.8 Q 94.3 17.6 93.4 18.8 Q 89.825 23.956 85.683 31.003 A 332.778 332.778 0 0 0 81.8 37.8 A 642.72 642.72 0 0 0 78.763 43.319 Q 74.736 50.724 71.985 56.314 A 218.21 218.21 0 0 0 71.6 57.1 Z M 244.3 77.5 L 245.6 74.6 Q 249 67.5 249 59.5 A 36.662 36.662 0 0 0 247.966 50.594 A 28.196 28.196 0 0 0 243.6 41 Q 233.9 61.4 222.4 80 Q 221.3 81.8 219.9 83.9 Q 218.648 85.779 216.595 88.577 A 253.471 253.471 0 0 1 216.1 89.25 A 46.018 46.018 0 0 1 214.019 91.874 Q 212.942 93.129 211.886 94.144 A 25.905 25.905 0 0 1 211.4 94.6 A 14.146 14.146 0 0 1 210.294 95.519 Q 208.7 96.7 207.5 96.7 A 1.04 1.04 0 0 1 207.108 96.632 Q 206.6 96.426 206.6 95.6 L 206.7 94.7 Q 207.04 91.466 215.931 75.478 A 648.189 648.189 0 0 1 219.3 69.5 L 238.3 35.9 Q 234.5 33.5 229.8 33.5 A 12.203 12.203 0 0 0 226.746 33.862 A 8.61 8.61 0 0 0 222.55 36.3 Q 219.9 39.1 219.9 43.8 A 14.359 14.359 0 0 0 220.256 47.032 A 13.148 13.148 0 0 0 220.4 47.6 A 9.145 9.145 0 0 1 220.545 48.075 Q 220.667 48.519 220.693 48.836 A 2 2 0 0 1 220.7 49 Q 220.7 49.9 220 49.9 A 1.844 1.844 0 0 1 218.975 49.541 Q 217.827 48.767 216.485 46.326 A 27.526 27.526 0 0 1 216.1 45.6 A 27.554 27.554 0 0 1 214.94 43.04 Q 213.909 40.385 213.9 38.334 A 8.218 8.218 0 0 1 213.9 38.3 A 9.566 9.566 0 0 1 214.315 35.41 A 7.464 7.464 0 0 1 216.85 31.75 A 10.243 10.243 0 0 1 220.66 29.883 Q 222.48 29.4 224.7 29.4 A 27.896 27.896 0 0 1 234.005 30.916 A 25.291 25.291 0 0 1 239.6 33.7 L 249.5 16.2 A 7.429 7.429 0 0 1 249.918 15.811 Q 250.609 15.219 251.071 15.201 A 0.738 0.738 0 0 1 251.1 15.2 A 0.823 0.823 0 0 1 251.887 15.722 Q 252.068 16.103 252.095 16.761 A 5.835 5.835 0 0 1 252.1 17 A 14.516 14.516 0 0 1 251.725 19.951 Q 250.662 24.919 246.578 34.313 A 243.031 243.031 0 0 1 244.8 38.3 Q 252.116 46.982 252.296 61.089 A 56.035 56.035 0 0 1 252.3 61.8 A 5.419 5.419 0 0 0 252.375 62.127 Q 252.5 62.598 252.658 62.739 A 0.211 0.211 0 0 0 252.8 62.8 Q 253.1 62.8 253.4 62 Q 259.4 51.1 263.7 42.4 Q 268.886 31.938 274.992 24.955 A 55.564 55.564 0 0 1 276.45 23.35 Q 280.995 18.544 285.604 16.88 A 14.336 14.336 0 0 1 290.5 16 Q 292 16 292 16.6 Q 292 16.9 291 18.2 A 51.841 51.841 0 0 0 286.732 22.6 Q 282.345 27.632 277.124 35.51 A 232.689 232.689 0 0 0 273.85 40.6 Q 267.048 51.469 262.209 60.189 A 240.832 240.832 0 0 0 258.15 67.8 Q 253.006 77.908 249.743 84.896 A 285.148 285.148 0 0 0 249 86.5 A 93.29 93.29 0 0 1 247.385 89.935 Q 244.104 96.528 242.17 96.969 A 1.214 1.214 0 0 1 241.9 97 A 1.109 1.109 0 0 1 240.933 96.394 Q 240.3 95.367 240.3 92.6 Q 240.3 89.4 241.6 84.9 Q 242.9 80.4 244.3 77.5 Z M 264 86.6 L 262.8 88.9 A 12.302 12.302 0 0 1 260.947 91.593 A 16.51 16.51 0 0 1 259.1 93.35 Q 256.6 95.4 253.9 95.4 A 4.204 4.204 0 0 1 253.433 95.377 Q 252.5 95.272 252.5 94.7 Q 252.5 94.211 253.064 92.86 A 28.571 28.571 0 0 1 253.35 92.2 Q 254.187 90.33 255.362 88.073 A 106.264 106.264 0 0 1 255.4 88 Q 256.6 85.7 257.8 83.5 A 695.493 695.493 0 0 0 258.375 82.444 Q 259.2 80.925 259.8 79.8 L 260.7 78.3 L 271.2 60 Q 275.669 51.575 280.46 49.322 A 8.245 8.245 0 0 1 284 48.5 Q 284.9 48.5 284.9 49.2 A 1.608 1.608 0 0 1 284.749 49.732 Q 284.089 51.322 280.55 56.65 A 239.682 239.682 0 0 0 279.047 58.939 Q 276.069 63.538 275.5 65 A 19.684 19.684 0 0 0 275.432 65.208 Q 275.318 65.562 275.302 65.672 A 0.209 0.209 0 0 0 275.3 65.7 Q 275.3 65.9 275.5 65.9 Q 275.7 65.9 276.2 65.4 A 121.244 121.244 0 0 1 291.037 51.146 A 111.804 111.804 0 0 1 292.1 50.3 Q 292.563 49.837 294.054 48.989 A 36.604 36.604 0 0 1 294.3 48.85 A 9.714 9.714 0 0 1 295.373 48.329 Q 295.932 48.101 296.441 47.994 A 4.183 4.183 0 0 1 297.3 47.9 A 1.567 1.567 0 0 1 298.796 48.859 Q 299.2 49.679 299.2 51.2 Q 299.2 53.781 297.967 57.08 A 33.007 33.007 0 0 1 296.8 59.8 Q 294.4 64.8 290.3 68.6 L 289.9 69 Q 289.5 69.3 289.05 69.65 Q 288.6 70 287.9 70.5 A 10.874 10.874 0 0 1 286.872 71.154 A 9.454 9.454 0 0 1 286.5 71.35 A 15.1 15.1 0 0 1 285.394 71.847 A 17.235 17.235 0 0 1 285 72 A 5.062 5.062 0 0 1 284.272 72.216 A 3.727 3.727 0 0 1 283.5 72.3 A 1.568 1.568 0 0 1 283.211 72.276 Q 282.7 72.179 282.7 71.7 Q 282.7 71.446 282.915 71.049 A 3.862 3.862 0 0 1 283 70.9 Q 287.928 63.215 288.74 59.577 A 5.94 5.94 0 0 0 288.9 58.3 Q 288.9 57.4 288.2 57.4 Q 285.2 57.4 274.1 71 Q 270.8 75.2 267.95 79.7 A 131.175 131.175 0 0 0 266.634 81.819 Q 265.286 84.041 264.484 85.607 A 25.572 25.572 0 0 0 264 86.6 Z M 374.5 77.6 L 376.3 74.4 A 745.83 745.83 0 0 1 379.869 68.219 Q 384.875 59.65 387.8 55.3 Q 389.5 52.8 392.15 51.05 Q 394.121 49.749 395.898 49.415 A 6.507 6.507 0 0 1 397.1 49.3 A 1.33 1.33 0 0 1 397.402 49.331 Q 397.814 49.428 397.885 49.822 A 1.002 1.002 0 0 1 397.9 50 Q 397.9 50.5 397.2 51.9 A 165.093 165.093 0 0 1 396.627 52.94 Q 395.119 55.656 391.3 62.4 Q 387.275 69.509 386.037 71.776 A 57.245 57.245 0 0 0 385.7 72.4 Q 381.6 79.6 381.6 82 Q 381.6 82.867 382.156 82.899 A 0.758 0.758 0 0 0 382.2 82.9 A 1.291 1.291 0 0 0 382.73 82.724 Q 383.952 82.096 387.15 79.224 A 130.52 130.52 0 0 0 388.6 77.9 Q 391.816 74.685 396.614 69.3 A 469.371 469.371 0 0 0 399.7 65.8 A 1.997 1.997 0 0 1 399.835 65.676 Q 399.974 65.561 400.088 65.521 A 0.341 0.341 0 0 1 400.2 65.5 A 0.16 0.16 0 0 1 400.349 65.599 Q 400.389 65.676 400.397 65.815 A 1.347 1.347 0 0 1 400.4 65.9 A 5.089 5.089 0 0 1 399.814 68.236 A 7.379 7.379 0 0 1 398.9 69.6 Q 391.5 77.8 385.8 83.3 A 177.579 177.579 0 0 1 381.708 87.038 Q 373.7 94.107 370.947 94.295 A 2.152 2.152 0 0 1 370.8 94.3 A 1.756 1.756 0 0 1 370.007 94.133 Q 369.272 93.766 369.132 92.592 A 5.041 5.041 0 0 1 369.1 92 A 8.55 8.55 0 0 1 369.242 90.54 Q 369.514 88.99 370.303 86.836 A 44.439 44.439 0 0 1 370.9 85.3 Q 372.58 81.192 374.261 78.043 A 55.036 55.036 0 0 1 374.5 77.6 Z M 170 52.6 L 169.9 52.3 Q 169.2 51.9 168.3 51.9 Q 164 51.9 157.65 58.3 Q 151.3 64.7 146.85 72.05 A 70.571 70.571 0 0 0 145.116 75.067 Q 142.638 79.659 142.421 82.142 A 5.26 5.26 0 0 0 142.4 82.6 A 2.614 2.614 0 0 0 142.445 83.111 Q 142.606 83.913 143.335 83.992 A 1.541 1.541 0 0 0 143.5 84 Q 144.7 84 146.6 82.3 Q 147.059 81.917 147.783 81.271 A 107.215 107.215 0 0 0 148.25 80.85 A 29.059 29.059 0 0 0 148.803 80.334 Q 149.956 79.233 152.3 76.85 Q 155.3 73.8 158.05 70.55 Q 160.8 67.3 164.15 62.5 Q 167.5 57.7 169.9 53 A 0.963 0.963 0 0 0 169.981 52.775 A 0.817 0.817 0 0 0 170 52.6 Z M 92.1 54.2 L 91.6 54.6 Q 88.5 57.3 83.85 64.45 A 105.351 105.351 0 0 0 82.27 66.95 Q 79.213 71.954 79.2 73.587 A 1.741 1.741 0 0 0 79.2 73.6 A 1.201 1.201 0 0 0 79.207 73.734 Q 79.237 74 79.4 74 A 1.487 1.487 0 0 0 79.732 73.952 Q 80.272 73.823 81.315 73.348 A 31.427 31.427 0 0 0 82.05 73 A 9.806 9.806 0 0 0 83.188 72.331 Q 85.022 71.103 87.824 68.421 A 80.411 80.411 0 0 0 87.95 68.3 A 29.053 29.053 0 0 0 92.653 62.362 A 35.933 35.933 0 0 0 94.4 59.1 A 15.319 15.319 0 0 0 95.083 57.452 Q 95.6 55.947 95.6 54.7 A 3.83 3.83 0 0 0 95.565 54.156 Q 95.413 53.1 94.6 53.1 Q 94 53.1 93.25 53.45 Q 92.5 53.8 92.1 54.2 Z M 194.9 40.6 A 6.458 6.458 0 0 0 194.913 41.017 Q 195.08 43.6 197.4 43.6 A 5.051 5.051 0 0 0 198.954 43.355 Q 199.935 43.04 200.871 42.319 A 9.955 9.955 0 0 0 202.3 40.95 Q 203.198 39.915 203.746 38.857 A 7.231 7.231 0 0 0 204.6 35.5 A 7.358 7.358 0 0 0 204.597 35.294 Q 204.529 32.872 202.841 32.287 A 3.782 3.782 0 0 0 201.6 32.1 Q 199.803 32.1 198.213 33.573 A 9.759 9.759 0 0 0 197 34.95 Q 194.9 37.8 194.9 40.6 Z M 349.2 40.6 A 6.458 6.458 0 0 0 349.213 41.017 Q 349.38 43.6 351.7 43.6 A 5.051 5.051 0 0 0 353.254 43.355 Q 354.235 43.04 355.171 42.319 A 9.955 9.955 0 0 0 356.6 40.95 Q 357.498 39.915 358.046 38.857 A 7.231 7.231 0 0 0 358.9 35.5 A 7.358 7.358 0 0 0 358.897 35.294 Q 358.829 32.872 357.141 32.287 A 3.782 3.782 0 0 0 355.9 32.1 Q 354.103 32.1 352.513 33.573 A 9.759 9.759 0 0 0 351.3 34.95 Q 349.2 37.8 349.2 40.6 Z M 396.6 40.6 A 6.458 6.458 0 0 0 396.613 41.017 Q 396.78 43.6 399.1 43.6 A 5.051 5.051 0 0 0 400.654 43.355 Q 401.635 43.04 402.571 42.319 A 9.955 9.955 0 0 0 404 40.95 Q 404.898 39.915 405.446 38.857 A 7.231 7.231 0 0 0 406.3 35.5 A 7.358 7.358 0 0 0 406.297 35.294 Q 406.229 32.872 404.541 32.287 A 3.782 3.782 0 0 0 403.3 32.1 Q 401.503 32.1 399.913 33.573 A 9.759 9.759 0 0 0 398.7 34.95 Q 396.6 37.8 396.6 40.6 Z" vector-effect="non-scaling-stroke"/></g></svg>